<svg width="120" height="51" viewBox="0 0 120 51" fill="none" xmlns="http://www.w3.org/2000/svg">
<g clip-path="url(#clip0_479_609)">
<path d="M22.6501 25.3001C22.8201 36.9301 4.55005 36.9301 4.72005 25.3001C4.55005 13.6701 22.8201 13.6701 22.6501 25.3001Z" fill="url(#paint0_linear_479_609)" stroke="#141719" stroke-width="0.58"/>
<path d="M119.15 23.5401C118.92 24.7901 119.96 28.5401 117.69 28.4101C116.44 28.0701 111.04 29.4101 111.11 27.0601C111.34 25.8101 110.3 22.0601 112.57 22.1901C113.82 22.5301 119.22 21.1901 119.15 23.5401Z" fill="#141618"/>
<path d="M11.3 23.27C11.04 24.76 12.24 29.06 9.54003 28.95C8.00003 28.47 0.210029 30.28 0.340029 27.33C0.600029 25.84 -0.599971 21.54 2.09003 21.65C3.60003 22.13 11.43 20.32 11.3 23.27Z" fill="#141618" stroke="#010101" stroke-width="0.58"/>
<path d="M10.27 23.6801C10.05 24.6801 11.01 28.1001 9.10002 28.0001H2.53002C0.64002 28.1001 1.58002 24.6801 1.36002 23.6801C1.37302 23.3821 1.50331 23.1014 1.72249 22.8991C1.94166 22.6967 2.23194 22.5893 2.53002 22.6001C3.54002 23.0001 10.42 21.6001 10.27 23.6801Z" fill="#24292E"/>
<path d="M36.8501 35.4401L33.9301 40.8401L14.9301 40.1701L19.3101 34.0901L36.8501 35.4401Z" fill="#1B1E22" stroke="#0F1012" stroke-width="0.58"/>
<path d="M18.51 38.8L30.51 39.38C31.25 39.38 31.04 40.29 31.02 40.75C31.53 41.94 18.72 40.44 18.45 40.69C17.54 40.66 17.67 38.73 18.51 38.8Z" fill="#2E343C"/>
<path d="M17.4301 37.4601C17.4301 39.2201 15.3701 39.2201 15.4301 37.4601C15.4901 35.7001 17.4501 35.7101 17.4301 37.4601Z" fill="#505864" stroke="#222222" stroke-width="0.44"/>
<path d="M107.68 14.49L111.33 5.70996" stroke="url(#paint1_linear_479_609)" stroke-width="1.45" stroke-linecap="round"/>
<path d="M114.98 1.65005L112.06 7.73005L109.58 5.71005L112.79 0.300049L114.98 1.65005Z" fill="url(#paint2_linear_479_609)" stroke="#131313" stroke-width="0.44"/>
<path opacity="0.8" d="M114.55 2.06009L112.06 7.19009L110.02 5.57009L112.65 0.840088L114.55 2.06009Z" fill="url(#paint3_linear_479_609)"/>
<path d="M107.68 36.1101L111.33 44.9001" stroke="url(#paint4_linear_479_609)" stroke-width="1.45" stroke-linecap="round"/>
<path d="M114.98 48.9501L112.06 42.8701L109.58 44.9001L112.79 50.3001L114.98 48.9501Z" fill="url(#paint5_linear_479_609)" stroke="#131313" stroke-width="0.44"/>
<path opacity="0.8" d="M114.55 48.5502L112.06 43.4102L110.02 45.0302L112.65 49.7602L114.55 48.5502Z" fill="url(#paint6_linear_479_609)"/>
<path d="M108.41 14.49C109.856 17.9106 110.6 21.5865 110.6 25.3C110.6 29.0135 109.856 32.6894 108.41 36.11C102.462 38.8222 95.7925 39.5243 89.41 38.11C87.2551 34.1734 86.1255 29.7578 86.1255 25.27C86.1255 20.7822 87.2551 16.3666 89.41 12.43C95.7992 11.0396 102.467 11.7625 108.41 14.49Z" fill="url(#paint7_linear_479_609)" stroke="#141719" stroke-width="0.58"/>
<path d="M112.06 15.8401C114.01 21.9961 114.01 28.6041 112.06 34.7601C104.66 33.7701 104.67 16.8401 112.06 15.8401Z" fill="#15191E" stroke="#010101" stroke-width="0.58"/>
<path opacity="0.95" d="M111 16.9199C112.167 20.2533 111.873 22.6866 110.12 24.2199C109.757 23.0079 109.648 21.7343 109.8 20.4783C109.951 19.2223 110.36 18.011 111 16.9199Z" fill="url(#paint8_linear_479_609)"/>
<path opacity="0.95" d="M111 33.6799C112.17 30.3499 111.88 27.9099 110.12 26.3799C109.757 27.5918 109.648 28.8656 109.799 30.1216C109.95 31.3777 110.359 32.589 111 33.6799Z" fill="url(#paint9_linear_479_609)"/>
<path d="M107.68 16.52C108.887 19.2915 109.51 22.282 109.51 25.305C109.51 28.328 108.887 31.3185 107.68 34.09C97.9533 33.1767 92.3567 30.2467 90.89 25.3C92.35 20.3534 97.9467 17.4267 107.68 16.52Z" fill="url(#paint10_linear_479_609)" stroke="#010101" stroke-width="0.58"/>
<path opacity="0.2" d="M109.14 25.3H92.35" stroke="white" stroke-width="0.44"/>
<path d="M105.2 19.22C105.2 19.75 104.31 19.75 104.32 19.22C104.33 18.69 105.21 18.69 105.2 19.22Z" fill="url(#paint11_linear_479_609)"/>
<path d="M105.2 31.3801C105.2 31.9101 104.31 31.9101 104.32 31.3801C104.33 30.8501 105.21 30.8601 105.2 31.3801Z" fill="url(#paint12_linear_479_609)"/>
<path d="M97.9 20.1699C97.9 20.6899 97.01 20.6899 97.02 20.1699C97.03 19.6499 97.91 19.6399 97.9 20.1699Z" fill="url(#paint13_linear_479_609)"/>
<path d="M97.9 30.4399C97.9 30.9599 97.01 30.9599 97.02 30.4399C97.03 29.9199 97.91 29.9099 97.9 30.4399Z" fill="url(#paint14_linear_479_609)"/>
<path d="M104.76 12.46C105.25 17.14 109.13 44.05 99.94 39.46C98.39 37.3 98.28 34.77 101.11 33.38C102.08 28.0168 102.08 22.5232 101.11 17.16C95.32 14.59 102 6.62 104.76 12.46Z" fill="#1A1D22" stroke="#101013" stroke-width="0.58"/>
<path d="M103.37 7.00005C103.21 7.52005 104.76 12.1901 103.57 12.1601C103.04 12.0601 100.4 13.0401 100.31 12.0401C100.47 11.5201 98.9201 6.85005 100.11 6.88005C100.64 7.00005 103.28 6.00005 103.37 7.00005Z" fill="#16181B" stroke="#010101" stroke-width="0.29"/>
<path d="M102.94 6.99996L103.63 11.55C103.78 12.08 101.29 12.01 101.07 12.15C100.51 12.5 100.2 7.50996 100.07 7.36996C99.7801 6.99996 103.08 6.57996 102.94 6.99996Z" fill="#4D1C59"/>
<path d="M100.88 38.3101C101.34 38.5501 104.17 38.3101 103.97 39.2601C103.66 39.7301 103.75 44.6101 102.62 44.2601C102.15 44.0201 99.3201 44.2601 99.5201 43.2601C99.8301 42.8601 99.7401 38.0001 100.88 38.3101Z" fill="#16181B" stroke="#010101" stroke-width="0.29"/>
<path d="M101 38.6C101.22 38.75 103.71 38.66 103.56 39.21L102.87 43.75C103 44.21 99.7101 43.75 99.9701 43.38C100.11 43.22 100.42 38.27 101 38.6Z" fill="#4D1C59"/>
<path d="M105.2 11.7901C105.1 12.0401 105.47 13.7901 104.91 13.6801C104.65 13.5901 103.13 13.9201 103.15 13.4101C103.26 13.1501 102.89 11.4101 103.45 11.5201C103.7 11.6101 105.23 11.2801 105.2 11.7901Z" fill="#282C34" stroke="#010101" stroke-width="0.29"/>
<path d="M104.62 11.79C105.08 11.19 105.89 1.24 107.97 4.78999L105.2 12.09L104.62 11.79Z" fill="url(#paint15_linear_479_609)"/>
<path d="M105.2 37.1901C105.1 37.4501 105.47 39.1901 104.91 39.0801C104.65 38.9901 103.13 39.3201 103.15 38.8101C103.26 38.5601 102.89 36.8101 103.45 36.9201C103.7 37.0001 105.23 36.6801 105.2 37.1901Z" fill="#282C34" stroke="#010101" stroke-width="0.29"/>
<path d="M104.62 38.82C105.08 39.41 105.89 49.36 107.97 45.82L105.2 38.53L104.62 38.82Z" fill="url(#paint16_linear_479_609)"/>
<path d="M104 19.22C104.98 23.2141 104.98 27.386 104 31.38C97.1001 32.86 97.1001 17.74 104 19.22Z" fill="#0F1114" stroke="url(#paint17_linear_479_609)" stroke-width="0.58"/>
<path d="M103.15 21.7899V28.7899C103.15 29.7899 100.73 29.1899 100.23 29.3299C99.04 29.7099 99.89 22.1599 99.65 21.7699C99.65 20.7699 102.07 21.3699 102.57 21.2299C102.645 21.2272 102.72 21.2397 102.79 21.2666C102.861 21.2936 102.925 21.3344 102.979 21.3867C103.033 21.4389 103.076 21.5016 103.106 21.5709C103.135 21.6401 103.15 21.7146 103.15 21.7899Z" fill="#0E1620" stroke="#1C364D" stroke-width="0.44"/>
<path d="M102.436 22.2751H101.585V22.432C101.585 22.4694 101.578 22.4959 101.563 22.5116C101.549 22.5278 101.531 22.5359 101.507 22.5359C101.485 22.5359 101.466 22.5278 101.451 22.5116C101.437 22.4959 101.43 22.4694 101.43 22.432V21.9627C101.43 21.9253 101.437 21.8985 101.451 21.8824C101.466 21.8667 101.485 21.8589 101.508 21.8589C101.531 21.8589 101.549 21.8667 101.563 21.8824C101.578 21.8985 101.585 21.9253 101.585 21.9627V22.1197H102.234L102.197 21.9809C102.191 21.9587 102.188 21.942 102.188 21.9309C102.188 21.9112 102.196 21.894 102.212 21.8793C102.227 21.8652 102.247 21.8581 102.269 21.8581C102.29 21.8581 102.306 21.8634 102.318 21.874C102.33 21.8846 102.341 21.9069 102.35 21.9407L102.436 22.2751ZM102.007 23.4676H101.836C101.735 23.4676 101.639 23.4383 101.546 23.3796C101.454 23.3215 101.407 23.2381 101.407 23.1295C101.407 23.0668 101.421 23.0137 101.448 22.9703C101.476 22.9273 101.527 22.8864 101.601 22.8474C101.675 22.809 101.754 22.7898 101.836 22.7898H102.007C102.108 22.7898 102.204 22.8189 102.297 22.877C102.39 22.9351 102.436 23.0185 102.436 23.1272C102.436 23.1894 102.422 23.2419 102.395 23.2849C102.368 23.3283 102.317 23.3695 102.243 23.4085C102.169 23.4479 102.09 23.4676 102.007 23.4676ZM102.007 23.3114C102.091 23.3114 102.165 23.2879 102.228 23.2409C102.263 23.2141 102.281 23.1765 102.281 23.128C102.281 23.0809 102.261 23.0425 102.223 23.0127C102.165 22.9677 102.093 22.9452 102.007 22.9452H101.836C101.751 22.9452 101.678 22.969 101.615 23.0165C101.58 23.0428 101.563 23.0804 101.563 23.1295C101.563 23.176 101.582 23.2141 101.62 23.2439C101.678 23.2889 101.75 23.3114 101.836 23.3114H102.007ZM102.411 24.2886H101.803C101.803 24.3215 101.796 24.3457 101.781 24.3614C101.767 24.3771 101.748 24.3849 101.726 24.3849C101.703 24.3849 101.684 24.3768 101.67 24.3607C101.655 24.345 101.648 24.321 101.648 24.2886H101.585C101.585 24.3215 101.578 24.3457 101.563 24.3614C101.549 24.3771 101.53 24.3849 101.507 24.3849C101.485 24.3849 101.466 24.3768 101.451 24.3607C101.437 24.345 101.43 24.3185 101.43 24.2811V24.0726C101.43 24.0352 101.437 24.0084 101.451 23.9922C101.466 23.9765 101.485 23.9687 101.508 23.9687C101.531 23.9687 101.549 23.9765 101.563 23.9922C101.578 24.0084 101.585 24.0352 101.585 24.0726V24.1332H101.648V23.7109H101.777L102.411 24.0832V24.2886ZM101.803 24.1332H102.185L101.803 23.9081V24.1332ZM101.758 25.7639H101.585V25.82C101.585 25.8574 101.578 25.884 101.563 25.8996C101.549 25.9158 101.531 25.9239 101.507 25.9239C101.485 25.9239 101.466 25.9158 101.451 25.8996C101.437 25.884 101.43 25.8574 101.43 25.82V25.5843C101.43 25.5469 101.437 25.5201 101.451 25.5039C101.466 25.4882 101.485 25.4804 101.508 25.4804C101.531 25.4804 101.549 25.4885 101.563 25.5047C101.578 25.5208 101.585 25.5474 101.585 25.5843V25.6085H102.193V25.5843C102.193 25.5469 102.201 25.5201 102.215 25.5039C102.229 25.4882 102.248 25.4804 102.272 25.4804C102.295 25.4804 102.314 25.4882 102.328 25.5039C102.342 25.5201 102.35 25.5469 102.35 25.5843L102.349 25.82C102.349 25.8574 102.342 25.884 102.328 25.8996C102.314 25.9158 102.295 25.9239 102.272 25.9239C102.248 25.9239 102.229 25.9158 102.215 25.8996C102.201 25.884 102.193 25.8574 102.193 25.82V25.7639H101.963L102.2 26.0399C102.212 26.0237 102.223 26.0126 102.233 26.0065C102.243 26.0005 102.255 25.9974 102.27 25.9974C102.294 25.9974 102.313 26.0053 102.328 26.0209C102.342 26.0371 102.35 26.0639 102.35 26.1013L102.349 26.2597C102.349 26.2971 102.342 26.3237 102.328 26.3393C102.314 26.3555 102.295 26.3636 102.272 26.3636C102.249 26.3636 102.23 26.3555 102.215 26.3393C102.201 26.3237 102.193 26.2989 102.193 26.265L101.949 25.9861C101.92 26.0381 101.874 26.0869 101.813 26.1324C101.752 26.1784 101.676 26.2191 101.585 26.2544V26.2961C101.585 26.333 101.578 26.3593 101.563 26.375C101.549 26.3911 101.531 26.3992 101.507 26.3992C101.485 26.3992 101.466 26.3914 101.451 26.3757C101.437 26.3601 101.43 26.3335 101.43 26.2961V26.1551C101.507 26.1228 101.581 26.0874 101.651 26.049C101.709 26.0176 101.75 25.9878 101.776 25.9595C101.802 25.9317 101.823 25.8984 101.839 25.8595L101.758 25.7639ZM102.049 26.6153H101.585V26.6714C101.585 26.7088 101.578 26.7353 101.563 26.751C101.549 26.7672 101.531 26.7753 101.507 26.7753C101.485 26.7753 101.466 26.7672 101.451 26.751C101.437 26.7353 101.43 26.7088 101.43 26.6714V26.4675C101.43 26.4301 101.437 26.4035 101.451 26.3879C101.466 26.3717 101.485 26.3636 101.508 26.3636C101.531 26.3636 101.549 26.3714 101.563 26.3871C101.578 26.4028 101.585 26.427 101.585 26.4599H102.193C102.196 26.4326 102.204 26.4119 102.218 26.3977C102.233 26.3841 102.25 26.3773 102.272 26.3773C102.295 26.3773 102.314 26.3851 102.328 26.4008C102.342 26.4169 102.35 26.4437 102.35 26.4811L102.349 26.6517L101.881 26.8632L102.35 27.0709L102.349 27.243C102.349 27.2804 102.342 27.307 102.328 27.3226C102.314 27.3388 102.295 27.3469 102.272 27.3469C102.25 27.3469 102.233 27.3398 102.218 27.3257C102.204 27.3115 102.196 27.291 102.193 27.2642H101.585C101.585 27.2971 101.578 27.3214 101.563 27.337C101.549 27.3527 101.53 27.3605 101.507 27.3605C101.485 27.3605 101.466 27.3524 101.451 27.3363C101.437 27.3206 101.43 27.2941 101.43 27.2567V27.052C101.43 27.0151 101.437 26.9885 101.451 26.9724C101.466 26.9567 101.485 26.9489 101.508 26.9489C101.531 26.9489 101.549 26.9567 101.563 26.9724C101.578 26.9885 101.585 27.0151 101.585 27.052V27.1088H102.049L101.648 26.9307V26.7957L102.049 26.6153ZM102.393 28.1111L101.319 27.613C101.293 27.6003 101.275 27.589 101.267 27.5789C101.256 27.5657 101.251 27.5498 101.251 27.5311C101.251 27.5099 101.259 27.4914 101.274 27.4758C101.289 27.4606 101.306 27.453 101.325 27.453C101.339 27.453 101.359 27.4591 101.385 27.4712L102.458 27.9708C102.485 27.9835 102.502 27.9946 102.51 28.0042C102.521 28.0178 102.526 28.0337 102.526 28.0519C102.526 28.0732 102.519 28.0914 102.504 28.1065C102.489 28.1217 102.472 28.1293 102.453 28.1293C102.439 28.1293 102.419 28.1232 102.393 28.1111ZM101.811 28.8934V28.5614H101.585V28.5857C101.585 28.6231 101.578 28.6496 101.563 28.6653C101.549 28.6814 101.531 28.6895 101.507 28.6895C101.485 28.6895 101.466 28.6814 101.451 28.6653C101.437 28.6496 101.43 28.6231 101.43 28.5857V28.3954C101.43 28.358 101.437 28.3312 101.451 28.315C101.466 28.2993 101.485 28.2915 101.508 28.2915C101.536 28.2915 101.558 28.3039 101.574 28.3286C101.582 28.3408 101.586 28.3666 101.585 28.406H102.193C102.196 28.3787 102.204 28.358 102.218 28.3438C102.233 28.3302 102.25 28.3233 102.272 28.3233C102.295 28.3233 102.314 28.3312 102.328 28.3468C102.342 28.363 102.35 28.3898 102.35 28.4272L102.349 28.5857C102.349 28.6231 102.342 28.6496 102.328 28.6653C102.314 28.6814 102.295 28.6895 102.272 28.6895C102.248 28.6895 102.229 28.6814 102.215 28.6653C102.201 28.6496 102.193 28.6231 102.193 28.5857V28.5614H101.966V28.8934H102.193V28.8692C102.193 28.8318 102.201 28.805 102.215 28.7888C102.229 28.7732 102.248 28.7653 102.272 28.7653C102.295 28.7653 102.314 28.7732 102.328 28.7888C102.342 28.805 102.35 28.8318 102.35 28.8692L102.349 29.0276C102.349 29.065 102.342 29.0916 102.328 29.1072C102.314 29.1234 102.295 29.1315 102.272 29.1315C102.25 29.1315 102.233 29.1244 102.218 29.1103C102.204 29.0966 102.196 29.0762 102.193 29.0489H101.585C101.585 29.0888 101.582 29.1146 101.574 29.1262C101.558 29.151 101.536 29.1633 101.507 29.1633C101.485 29.1633 101.466 29.1553 101.451 29.1391C101.437 29.1234 101.43 29.0969 101.43 29.0595V28.8692C101.43 28.8318 101.437 28.805 101.451 28.7888C101.466 28.7732 101.485 28.7653 101.508 28.7653C101.531 28.7653 101.549 28.7734 101.563 28.7896C101.578 28.8058 101.585 28.8323 101.585 28.8692V28.8934H101.811Z" fill="#5FCAE7"/>
<path d="M90.16 12.46C88.0051 16.3966 86.8755 20.8122 86.8755 25.3C86.8755 29.7878 88.0051 34.2034 90.16 38.14L57.3 40.84C53.8899 30.7606 53.8899 19.8394 57.3 9.76001L90.16 12.46Z" fill="#191A1F" stroke="#111214" stroke-width="0.58"/>
<path d="M86.51 13.82L84.32 19.22L59.49 17.87L63.14 11.79L86.51 13.82Z" fill="#131416" stroke="#252B31" stroke-width="0.44"/>
<path d="M83.59 14.4901L64.6 12.8701" stroke="#070707" stroke-width="0.87"/>
<path d="M82.86 16.11L62.41 14.76" stroke="#070707" stroke-width="0.87"/>
<path d="M82.12 17.7299L60.95 16.6499" stroke="#070707" stroke-width="0.87"/>
<path d="M86.51 36.7901L84.32 31.3801L59.49 32.7301L63.14 38.8201L86.51 36.7901Z" fill="#131416" stroke="#252B31" stroke-width="0.44"/>
<path d="M83.59 36.1101L64.6 37.7301" stroke="#070707" stroke-width="0.87"/>
<path d="M82.86 34.49L62.41 35.84" stroke="#070707" stroke-width="0.87"/>
<path d="M82.12 32.8701L60.95 33.9501" stroke="#070707" stroke-width="0.87"/>
<path d="M85.05 19.63C83.88 23.3229 83.88 27.2872 85.05 30.98L58.05 31.79C56.583 27.5809 56.583 22.9992 58.05 18.79L85.05 19.63Z" fill="url(#paint18_linear_479_609)" stroke="#141719" stroke-width="0.58"/>
<path d="M82 25.2999C82 27.7499 77.87 27.7499 77.91 25.2999C77.95 22.8499 82 22.8499 82 25.2999Z" fill="#16181B" stroke="url(#paint19_linear_479_609)" stroke-width="0.58"/>
<path d="M81.1 25.3C81.1 26.7 78.74 26.7 78.77 25.3C78.8 23.9 81.13 23.9 81.1 25.3Z" fill="#2C3239"/>
<path d="M74.09 22.19V28.41C74.15 29.62 71.09 28.9 70.44 29.08C68.97 29.36 70.01 22.78 69.71 22.19C69.71 20.98 72.71 21.7 73.36 21.52C73.4519 21.516 73.5438 21.5301 73.6302 21.5616C73.7167 21.5931 73.7961 21.6414 73.8639 21.7036C73.9317 21.7658 73.9866 21.8408 74.0254 21.9243C74.0642 22.0077 74.0861 22.098 74.09 22.19Z" fill="#141619" stroke="#2E343C" stroke-width="0.29"/>
<path d="M72.92 25.2999C72.92 26.5299 70.86 26.5299 70.92 25.2999C70.98 24.0699 72.94 24.0699 72.92 25.2999Z" fill="url(#paint20_linear_479_609)"/>
<path d="M58 9.76004C-4.46997 -5.99996 -4.32998 56.59 58 40.84C54.5899 30.7607 54.5899 19.8394 58 9.76004Z" fill="url(#paint21_linear_479_609)" stroke="#141719" stroke-width="0.58"/>
<path d="M56.57 10.71C45.57 7.71005 33.93 9.09005 28.09 13.14L29.55 15.57C34.66 12.06 44.88 10.71 54.67 13.14L56.57 10.71Z" fill="url(#paint22_linear_479_609)" stroke="#3D2C16" stroke-width="0.29"/>
<path d="M56.57 39.9C45.57 42.9 33.93 41.52 28.09 37.46L29.55 35C34.66 38.52 44.88 39.87 54.67 37.43L56.57 39.9Z" fill="url(#paint23_linear_479_609)" stroke="#3D2C16" stroke-width="0.29"/>
<path d="M52.92 10.1701C42.69 8.00011 29.55 8.41011 22.25 12.4601L23.71 14.4601C30.28 11.0801 41.96 10.6801 51.46 12.3001L52.92 10.1701Z" fill="#131517"/>
<path d="M52.92 40.4401C42.69 42.6001 29.55 42.1901 22.25 38.1401L23.71 36.1401C30.28 39.4901 42 39.9001 51.46 38.2701L52.92 40.4401Z" fill="#131517"/>
<path d="M64.6001 17.4601C66.5496 22.505 66.5496 28.0953 64.6001 33.1401C3.37006 48.2601 3.56005 2.32013 64.6001 17.4601Z" fill="url(#paint24_linear_479_609)" stroke="#0B0C0C" stroke-width="0.87"/>
<path d="M62.85 18.5502C64.6041 22.8827 64.6041 27.7277 62.85 32.0602C6.76004 45.0902 7.00005 5.49019 62.85 18.5502Z" stroke="#7B8594" stroke-width="0.44" stroke-dasharray="1.74 0.87"/>
<path d="M44.1501 14.7603C41.7202 21.5768 41.7202 29.0237 44.1501 35.8403" stroke="#0D0E0F" stroke-width="1.45"/>
<path d="M44.1501 14.7603C41.7202 21.5768 41.7202 29.0237 44.1501 35.8403" stroke="#7B8594" stroke-width="0.44" stroke-dasharray="1.45 0.87"/>
<path opacity="0.7" d="M61.0001 19.9001C61.9702 23.4381 61.9702 27.172 61.0001 30.7101C49.7001 34.3301 41.1401 31.0001 45.6201 20.5701C47.8101 18.2701 54.3801 17.8701 61.0001 19.9001Z" fill="#1D2126"/>
<path opacity="0.7" d="M40.5001 19.6302C39.2353 23.3147 39.2353 27.3157 40.5001 31.0002C16.7101 36.4902 16.7401 14.1002 40.5001 19.6302Z" fill="#1D2126"/>
<path d="M21.52 15.84C17.14 15.17 13.52 17.84 12.76 22.6L10.86 21.52C11.73 16.11 16.41 13.14 22.25 13.95L21.52 15.84Z" fill="url(#paint25_linear_479_609)" stroke="url(#paint26_linear_479_609)" stroke-width="0.44"/>
<path d="M21.52 34.76C17.14 35.44 13.52 32.76 12.76 28L10.86 29.09C11.73 34.49 16.41 37.46 22.25 36.65L21.52 34.76Z" fill="url(#paint27_linear_479_609)" stroke="url(#paint28_linear_479_609)" stroke-width="0.44"/>
<path d="M13.4901 19.2201C14.4601 23.2154 14.4601 27.3848 13.4901 31.3801C10.0834 32.2801 7.64672 30.2534 6.18005 25.3001C7.64005 20.3534 10.0767 18.3268 13.4901 19.2201Z" fill="#131313" stroke="#010101" stroke-width="0.58"/>
<path d="M12.32 20.1702C13.1 23.5491 13.1 27.0613 12.32 30.4402L8.81003 29.3602C7.83961 26.7439 7.83961 23.8664 8.81003 21.2502L12.32 20.1702Z" fill="url(#paint29_radial_479_609)" stroke="white" stroke-width="0.29"/>
<path opacity="0.8" d="M11.5901 25.3001C11.5901 28.1101 9.52006 28.1101 9.54006 25.3001C9.56006 22.4901 11.6101 22.4901 11.5901 25.3001Z" fill="white"/>
<path d="M12.0001 17.1901C11.4078 16.8291 10.6986 16.7119 10.0217 16.8629C9.34472 17.014 8.7527 17.4216 8.37006 18.0001L12.0001 17.1901Z" fill="#F8991D" stroke="#CB7B29" stroke-width="0.29"/>
<path d="M12 33.4101C11.4052 33.7803 10.689 33.9029 10.0049 33.7515C9.32074 33.6001 8.72313 33.1868 8.34003 32.6001L12 33.4101Z" fill="#F8991D" stroke="#CB7B29" stroke-width="0.29"/>
<path d="M6.91003 21.2501L0.340027 20.5701V30.0001L6.91003 29.3301V21.2501Z" fill="#16171A" stroke="#010101" stroke-width="0.44"/>
<path d="M4.72001 21.7901C4.53001 21.9701 5.14001 29.3101 4.43001 29.0801C4.19001 28.9501 1.43001 29.3801 1.51001 28.8101V21.8101C1.27001 21.3501 5.00001 21.3601 4.72001 21.7901Z" fill="#0D0E0F" stroke="#333333" stroke-width="0.29"/>
<path d="M4.43005 21.79H1.80005V28.82H4.43005V21.79Z" fill="white"/>
<path d="M3.50768 22.3226V22.6455C3.50768 22.7094 3.50492 22.7569 3.49941 22.7882C3.49427 22.8198 3.48325 22.8479 3.46636 22.8725C3.44946 22.8974 3.42687 22.9182 3.39859 22.9347C3.37068 22.9512 3.33928 22.9595 3.30438 22.9595C3.26655 22.9595 3.23184 22.9492 3.20026 22.9287C3.16867 22.9085 3.14498 22.8809 3.12919 22.846C3.11486 22.8952 3.09044 22.9331 3.05591 22.9595C3.02139 22.986 2.9808 22.9992 2.93416 22.9992C2.89743 22.9992 2.86162 22.9905 2.82673 22.9733C2.7922 22.9564 2.76447 22.9331 2.74354 22.9033C2.72297 22.8739 2.7103 22.8376 2.70552 22.7942C2.70258 22.767 2.70075 22.7015 2.70001 22.5975V22.3226H3.50768ZM3.37325 22.4857H3.18648V22.5926C3.18648 22.6561 3.1874 22.6956 3.18924 22.711C3.19254 22.739 3.20209 22.7608 3.21789 22.7766C3.23405 22.7928 3.25517 22.8008 3.28124 22.8008C3.30622 22.8008 3.32642 22.7939 3.34185 22.7799C3.35764 22.7663 3.36719 22.7459 3.3705 22.7187C3.37233 22.7026 3.37325 22.6561 3.37325 22.5794V22.4857ZM3.05206 22.4857H2.83609V22.6367C2.83609 22.6954 2.83775 22.7327 2.84105 22.7485C2.84546 22.7727 2.85611 22.7924 2.873 22.8074C2.89027 22.8229 2.91322 22.8306 2.94187 22.8306C2.96611 22.8306 2.98668 22.8247 3.00358 22.813C3.02047 22.8012 3.03277 22.7841 3.04049 22.7617C3.0482 22.7397 3.05206 22.6916 3.05206 22.6174V22.4857ZM2.70001 23.7209H2.86254V23.3903H2.99807L3.51098 23.7407V23.8707H2.99862V23.971H2.86254V23.8707H2.70001V23.7209ZM2.99862 23.7209H3.27463L2.99862 23.5352V23.7209ZM3.30989 24.5699L3.29337 24.42C3.32422 24.4164 3.34699 24.4068 3.36168 24.3914C3.37637 24.376 3.38372 24.3559 3.38372 24.3313C3.38372 24.2986 3.36903 24.2709 3.33964 24.2481C3.31026 24.2257 3.24911 24.2116 3.15618 24.2057C3.20173 24.2443 3.2245 24.2922 3.2245 24.3495C3.2245 24.4141 3.19989 24.4694 3.15067 24.5153C3.10146 24.5616 3.03792 24.5848 2.96005 24.5848C2.87741 24.5848 2.81112 24.5605 2.76117 24.512C2.71121 24.4635 2.68624 24.4013 2.68624 24.3253C2.68624 24.2437 2.71783 24.1767 2.781 24.1242C2.84454 24.0717 2.94848 24.0454 3.09283 24.0454C3.24084 24.0454 3.34754 24.0728 3.41292 24.1275C3.47829 24.1822 3.51098 24.2533 3.51098 24.3407C3.51098 24.402 3.49372 24.4527 3.4592 24.4927C3.42504 24.5331 3.37527 24.5589 3.30989 24.5699ZM2.97217 24.2189C2.92185 24.2189 2.88292 24.2305 2.85537 24.2536C2.8282 24.2768 2.81461 24.3032 2.81461 24.333C2.81461 24.3616 2.82581 24.3855 2.84821 24.4046C2.87062 24.4237 2.90735 24.4332 2.9584 24.4332C3.01092 24.4332 3.0493 24.423 3.07354 24.4024C3.09815 24.3818 3.11046 24.3561 3.11046 24.3253C3.11046 24.2955 3.0987 24.2704 3.0752 24.2498C3.05206 24.2292 3.01772 24.2189 2.97217 24.2189Z" fill="#010101"/>
<path d="M2.70001 24.9641V24.8093H3.28345C3.23056 24.7527 3.19144 24.686 3.1661 24.6093H3.30659C3.31981 24.6497 3.34479 24.6936 3.38151 24.7409C3.41861 24.7883 3.46177 24.8208 3.51098 24.8385V24.9641H2.70001Z" fill="#010101"/>
<path d="M2.70001 25.5041V25.3493H3.28345C3.23056 25.2927 3.19144 25.2261 3.1661 25.1493H3.30659C3.31981 25.1897 3.34479 25.2336 3.38151 25.281C3.41861 25.3284 3.46177 25.3609 3.51098 25.3785V25.5041H2.70001ZM2.70001 26.082H3.50768V26.3261L2.95675 26.4726L3.50768 26.6175V26.8622H2.70001V26.7106H3.33579L2.70001 26.5503V26.3933L3.33579 26.2335H2.70001V26.082ZM2.70001 27.7525V27.5751L2.88347 27.5045V27.1817L2.70001 27.115V26.942L3.50768 27.2566V27.4291L2.70001 27.7525ZM3.01955 27.4522L3.31926 27.3409L3.01955 27.2318V27.4522ZM2.70001 27.7574L3.12147 28.0334L3.50768 27.7833V27.9739L3.24819 28.1359L3.50768 28.2946V28.4835L3.11541 28.2323L2.70001 28.5083V28.3117L2.97933 28.1326L2.70001 27.953V27.7574Z" fill="#010101"/>
</g>
<defs>
<linearGradient id="paint0_linear_479_609" x1="13.6901" y1="16.5801" x2="13.6901" y2="34.0201" gradientUnits="userSpaceOnUse">
<stop stop-color="#F99C1C"/>
<stop offset="0.25" stop-color="#F9A33A"/>
<stop offset="0.5" stop-color="#E0AE5F"/>
<stop offset="0.75" stop-color="#F9A33A"/>
<stop offset="1" stop-color="#F99D1E"/>
</linearGradient>
<linearGradient id="paint1_linear_479_609" x1="112.71" y1="1.48996" x2="101.385" y2="5.84563" gradientUnits="userSpaceOnUse">
<stop stop-color="#E7E8EB"/>
<stop offset="0.5" stop-color="#8A929A"/>
<stop offset="1" stop-color="#44494E"/>
</linearGradient>
<linearGradient id="paint2_linear_479_609" x1="112.42" y1="0.160049" x2="112.42" y2="7.86005" gradientUnits="userSpaceOnUse">
<stop stop-color="#1F232A"/>
<stop offset="0.25" stop-color="#363C46"/>
<stop offset="0.5" stop-color="#424854"/>
<stop offset="0.75" stop-color="#363C46"/>
<stop offset="1" stop-color="#191C22"/>
</linearGradient>
<linearGradient id="paint3_linear_479_609" x1="114.42" y1="0.900088" x2="108.371" y2="4.88961" gradientUnits="userSpaceOnUse">
<stop stop-color="#E7E8EB"/>
<stop offset="0.5" stop-color="#8A929A"/>
<stop offset="1" stop-color="#44494E"/>
</linearGradient>
<linearGradient id="paint4_linear_479_609" x1="113.21" y1="30.8401" x2="100.579" y2="35.6984" gradientUnits="userSpaceOnUse">
<stop stop-color="#E7E8EB"/>
<stop offset="0.5" stop-color="#8A929A"/>
<stop offset="1" stop-color="#44494E"/>
</linearGradient>
<linearGradient id="paint5_linear_479_609" x1="112.42" y1="42.9101" x2="112.42" y2="50.0601" gradientUnits="userSpaceOnUse">
<stop stop-color="#1F232A"/>
<stop offset="0.25" stop-color="#363C46"/>
<stop offset="0.5" stop-color="#424854"/>
<stop offset="0.75" stop-color="#363C46"/>
<stop offset="1" stop-color="#191C22"/>
</linearGradient>
<linearGradient id="paint6_linear_479_609" x1="114.42" y1="43.7702" x2="108.803" y2="47.4747" gradientUnits="userSpaceOnUse">
<stop stop-color="#E7E8EB"/>
<stop offset="0.5" stop-color="#8A929A"/>
<stop offset="1" stop-color="#44494E"/>
</linearGradient>
<linearGradient id="paint7_linear_479_609" x1="97.905" y1="12.15" x2="97.905" y2="38.15" gradientUnits="userSpaceOnUse">
<stop stop-color="#F99C1C"/>
<stop offset="0.25" stop-color="#F9A33A"/>
<stop offset="0.5" stop-color="#E0AE5F"/>
<stop offset="0.75" stop-color="#F9A33A"/>
<stop offset="1" stop-color="#F99D1E"/>
</linearGradient>
<linearGradient id="paint8_linear_479_609" x1="111.692" y1="20.8299" x2="109.837" y2="20.8299" gradientUnits="userSpaceOnUse">
<stop stop-color="white"/>
<stop offset="0.5" stop-color="#D7F0FC"/>
<stop offset="1" stop-color="#48A3DA"/>
</linearGradient>
<linearGradient id="paint9_linear_479_609" x1="111.693" y1="29.8099" x2="109.838" y2="29.8099" gradientUnits="userSpaceOnUse">
<stop stop-color="white"/>
<stop offset="0.5" stop-color="#D7F0FC"/>
<stop offset="1" stop-color="#48A3DA"/>
</linearGradient>
<linearGradient id="paint10_linear_479_609" x1="109.67" y1="24.8" x2="90.545" y2="24.8" gradientUnits="userSpaceOnUse">
<stop stop-color="#3A0F3C" stop-opacity="0.95"/>
<stop offset="0.62" stop-color="#691E5B" stop-opacity="0.9"/>
<stop offset="1" stop-color="#3C0E3C" stop-opacity="0.98"/>
</linearGradient>
<linearGradient id="paint11_linear_479_609" x1="105.2" y1="18.79" x2="104.36" y2="19.63" gradientUnits="userSpaceOnUse">
<stop stop-color="#B8935C"/>
<stop offset="0.5" stop-color="#8C6A39"/>
<stop offset="1" stop-color="#553F1D"/>
</linearGradient>
<linearGradient id="paint12_linear_479_609" x1="105.2" y1="30.9701" x2="104.36" y2="31.8101" gradientUnits="userSpaceOnUse">
<stop stop-color="#B8935C"/>
<stop offset="0.5" stop-color="#8C6A39"/>
<stop offset="1" stop-color="#553F1D"/>
</linearGradient>
<linearGradient id="paint13_linear_479_609" x1="97.86" y1="19.7299" x2="97.02" y2="20.5699" gradientUnits="userSpaceOnUse">
<stop stop-color="#B8935C"/>
<stop offset="0.5" stop-color="#8C6A39"/>
<stop offset="1" stop-color="#553F1D"/>
</linearGradient>
<linearGradient id="paint14_linear_479_609" x1="97.86" y1="30.0299" x2="97.02" y2="30.8699" gradientUnits="userSpaceOnUse">
<stop stop-color="#B8935C"/>
<stop offset="0.5" stop-color="#8C6A39"/>
<stop offset="1" stop-color="#553F1D"/>
</linearGradient>
<linearGradient id="paint15_linear_479_609" x1="107.7" y1="3.28919" x2="102.103" y2="5.46092" gradientUnits="userSpaceOnUse">
<stop stop-color="#E7E8EB"/>
<stop offset="0.5" stop-color="#8A929A"/>
<stop offset="1" stop-color="#44494E"/>
</linearGradient>
<linearGradient id="paint16_linear_479_609" x1="107.7" y1="38.6304" x2="102.602" y2="40.7734" gradientUnits="userSpaceOnUse">
<stop stop-color="#E7E8EB"/>
<stop offset="0.5" stop-color="#8A929A"/>
<stop offset="1" stop-color="#44494E"/>
</linearGradient>
<linearGradient id="paint17_linear_479_609" x1="107.37" y1="16.6953" x2="90.5035" y2="24.6731" gradientUnits="userSpaceOnUse">
<stop stop-color="#B8935C"/>
<stop offset="0.5" stop-color="#8C6A39"/>
<stop offset="1" stop-color="#553F1D"/>
</linearGradient>
<linearGradient id="paint18_linear_479_609" x1="71.835" y1="18.3" x2="71.835" y2="31.74" gradientUnits="userSpaceOnUse">
<stop stop-color="#F99C1C"/>
<stop offset="0.25" stop-color="#F9A33A"/>
<stop offset="0.5" stop-color="#E0AE5F"/>
<stop offset="0.75" stop-color="#F9A33A"/>
<stop offset="1" stop-color="#F99D1E"/>
</linearGradient>
<linearGradient id="paint19_linear_479_609" x1="83.42" y1="21.9999" x2="76.42" y2="28.7199" gradientUnits="userSpaceOnUse">
<stop stop-color="#B8935C"/>
<stop offset="0.5" stop-color="#8C6A39"/>
<stop offset="1" stop-color="#553F1D"/>
</linearGradient>
<linearGradient id="paint20_linear_479_609" x1="72.86" y1="24.2699" x2="70.9" y2="26.2299" gradientUnits="userSpaceOnUse">
<stop stop-color="#E7E8EB"/>
<stop offset="0.5" stop-color="#8A929A"/>
<stop offset="1" stop-color="#44494E"/>
</linearGradient>
<linearGradient id="paint21_linear_479_609" x1="57.13" y1="26.3072" x2="12.33" y2="26.3072" gradientUnits="userSpaceOnUse">
<stop stop-color="#F99C1C"/>
<stop offset="0.25" stop-color="#F9A33A"/>
<stop offset="0.5" stop-color="#E0AE5F"/>
<stop offset="0.75" stop-color="#F9A33A"/>
<stop offset="1" stop-color="#F99D1E"/>
</linearGradient>
<linearGradient id="paint22_linear_479_609" x1="56.98" y1="8.70495" x2="53.6523" y2="22.2547" gradientUnits="userSpaceOnUse">
<stop stop-color="#632B80"/>
<stop offset="0.5" stop-color="#552972"/>
<stop offset="1" stop-color="#542972"/>
</linearGradient>
<linearGradient id="paint23_linear_479_609" x1="55.03" y1="34.4166" x2="51.9242" y2="47.063" gradientUnits="userSpaceOnUse">
<stop stop-color="#7E2B8D"/>
<stop offset="0.5" stop-color="#582B7A"/>
<stop offset="1" stop-color="#4A1D56"/>
</linearGradient>
<linearGradient id="paint24_linear_479_609" x1="41.2301" y1="14.4433" x2="41.2301" y2="36.6025" gradientUnits="userSpaceOnUse">
<stop stop-color="#16171A"/>
<stop offset="0.3" stop-color="#262B31"/>
<stop offset="0.7" stop-color="#262B31"/>
<stop offset="1" stop-color="#131416"/>
</linearGradient>
<linearGradient id="paint25_linear_479_609" x1="16.38" y1="13.8416" x2="16.38" y2="22.289" gradientUnits="userSpaceOnUse">
<stop stop-color="#1F232A"/>
<stop offset="0.25" stop-color="#363C46"/>
<stop offset="0.5" stop-color="#424854"/>
<stop offset="0.75" stop-color="#363C46"/>
<stop offset="1" stop-color="#191C22"/>
</linearGradient>
<linearGradient id="paint26_linear_479_609" x1="29.64" y1="13.1918" x2="15.0525" y2="31.4635" gradientUnits="userSpaceOnUse">
<stop stop-color="#B8935C"/>
<stop offset="0.5" stop-color="#8C6A39"/>
<stop offset="1" stop-color="#553F1D"/>
</linearGradient>
<linearGradient id="paint27_linear_479_609" x1="16.38" y1="27.8396" x2="16.38" y2="36.9368" gradientUnits="userSpaceOnUse">
<stop stop-color="#1F232A"/>
<stop offset="0.25" stop-color="#363C46"/>
<stop offset="0.5" stop-color="#424854"/>
<stop offset="0.75" stop-color="#363C46"/>
<stop offset="1" stop-color="#191C22"/>
</linearGradient>
<linearGradient id="paint28_linear_479_609" x1="30.42" y1="25.2404" x2="13.8031" y2="45.1868" gradientUnits="userSpaceOnUse">
<stop stop-color="#B8935C"/>
<stop offset="0.5" stop-color="#8C6A39"/>
<stop offset="1" stop-color="#553F1D"/>
</linearGradient>
<radialGradient id="paint29_radial_479_609" cx="0" cy="0" r="1" gradientUnits="userSpaceOnUse" gradientTransform="translate(2.92103 26.1008) rotate(90) scale(3.9644 4.301)">
<stop stop-color="#F05151"/>
<stop offset="0.6" stop-color="#CB2026"/>
<stop offset="1" stop-color="#640E0E"/>
</radialGradient>
<clipPath id="clip0_479_609">
<rect width="119.19" height="50.6" fill="white"/>
</clipPath>
</defs>
</svg>
