<svg width="545" height="56" viewBox="0 0 545 56" fill="none" xmlns="http://www.w3.org/2000/svg">
<path fill-rule="evenodd" clip-rule="evenodd" d="M146.228 0H205.45H502.196L544.587 26.8192L502.196 53.6385H205.45H146.228L188.618 26.8192L146.228 0Z" fill="url(#paint0_linear_669_2147)"/>
<path fill-rule="evenodd" clip-rule="evenodd" d="M113.216 1.5249H128.18H134.096L176.486 28.3441L134.096 55.1634H128.18H113.216L155.607 28.3441L113.216 1.5249Z" fill="#FFC243"/>
<path fill-rule="evenodd" clip-rule="evenodd" d="M80.3433 1.5249H95.318H101.223L143.625 28.3441L101.223 55.1634H95.318H80.3433L122.733 28.3441L80.3433 1.5249Z" fill="#FFC243"/>
<path d="M94.3088 29.6173C93.059 26.166 90.3186 23.2995 86.959 21.8433C88.5872 22.1987 90.1581 22.772 91.6601 23.5861C92.3366 19.1717 90.0205 14.6311 86.466 11.9136C82.923 9.20762 78.3136 8.15273 73.8533 8.17566C69.3815 8.21006 65.2651 9.5516 60.9424 10.6753C62.2954 10.3886 63.7745 10.6065 64.967 11.3288C66.1595 12.0512 67.0309 13.2895 67.2373 14.6655C67.4552 16.0414 67.0538 17.7155 65.8614 18.4493C64.2905 19.4354 62.2151 18.9079 60.5411 18.1053C57.5828 16.6721 55.0603 14.4935 52.2052 12.8538C49.3616 11.2142 45.9333 10.1134 42.803 11.1225C40.5098 11.8563 38.7096 13.6221 36.6572 14.8948C32.5179 17.4517 27.1632 17.8989 22.657 16.0873C25.3286 17.8989 28.3442 18.9423 31.5662 18.736C34.169 18.564 36.6686 17.6925 39.2026 17.0619C41.7367 16.4313 44.4312 16.0414 46.9193 16.8097C49.419 17.5779 51.6319 19.7794 51.6549 22.3937C51.6778 24.641 50.0611 26.682 48.043 27.6795C46.0135 28.6656 43.663 28.7573 41.4271 28.4936C35.4188 27.7827 29.9495 24.6869 24.0788 23.1848C16.0755 21.1324 7.31538 22.1529 0 26.0055C5.03362 24.1709 10.4571 25.157 15.3531 27.347C20.2377 29.537 24.6063 32.7361 29.3303 35.2701C36.1527 38.9393 44.1675 41.2554 51.6663 39.3062C57.686 37.7468 62.7541 33.6304 68.6706 31.75C70.9523 31.0276 73.6125 30.6951 75.5961 32.0252C78.1072 33.7107 78.3938 37.5977 76.6968 40.0973C74.9884 42.5855 71.8352 43.7665 68.8082 43.8353C65.7926 43.9041 62.8458 43.0212 59.9449 42.1498C58.4543 41.7026 56.5853 41.9434 55.0259 42.1268C53.478 42.3103 51.93 42.8033 50.7261 43.8009C54.4297 42.3906 58.1332 43.8124 61.8712 45.0966C67.3176 46.9655 72.9474 48.7084 78.6919 48.4905C84.4479 48.2727 90.4218 45.7272 93.3227 40.7624C95.2605 37.4372 95.6159 33.2406 94.3088 29.6173Z" fill="#FFC243"/>
<path d="M479.717 46.2088C479.247 45.3374 478.719 44.5233 478.559 44.3971C478.341 44.2137 477.837 44.2366 476.518 44.4889C474.626 44.8443 474.099 44.787 473.881 44.2251C473.8 43.9958 474.546 42.1612 475.922 39.2259C477.882 35.0408 478.135 34.6051 478.536 34.7312C478.788 34.8 479.006 34.9261 479.04 34.9949C479.568 36.1874 480.382 37.3111 480.875 37.5519C481.494 37.85 481.724 37.8041 484.086 37.0244C484.212 36.99 484.716 37.3111 485.209 37.7583L486.127 38.5609L484.086 42.9065C482.962 45.2915 481.941 47.3669 481.815 47.5159C481.689 47.665 481.368 47.7911 481.093 47.7911C480.68 47.7911 480.416 47.4815 479.717 46.2088ZM492.765 47.6191C492.536 47.4701 491.401 45.1883 489.085 40.1891L488.271 38.4462L489.188 37.7009L490.094 36.9556L491.47 37.4028C492.697 37.8041 492.903 37.8156 493.465 37.5519C493.969 37.3111 494.772 36.1989 495.311 34.9949C495.345 34.9261 495.563 34.8 495.804 34.7312C496.205 34.6051 496.458 35.0293 498.418 39.1686C499.599 41.6911 500.585 43.8353 500.585 43.95C500.585 44.0646 500.39 44.2825 500.15 44.4545C499.771 44.7067 499.496 44.7067 498.086 44.443C497.203 44.2825 496.263 44.1907 496.022 44.2595C495.747 44.3283 495.299 44.9017 494.841 45.796C493.809 47.7452 493.453 48.0548 492.765 47.6191ZM486.528 37.0359C486.379 36.8639 485.886 36.4167 485.427 36.0498L484.59 35.3962L482.962 35.8778C482.068 36.1415 481.311 36.2791 481.276 36.1759C481.23 36.0727 480.887 35.4077 480.497 34.7083L479.786 33.4355L478.353 33.2865C476.357 33.0801 476.323 33.0571 476.323 31.9679C476.323 30.0072 476.174 29.732 474.695 29.0096C473.881 28.5968 473.342 28.207 473.342 28.0006C473.342 27.8171 473.548 27.0718 473.789 26.3495L474.236 25.0309L473.147 23.7237L472.058 22.4166L472.597 21.7516C472.883 21.3846 473.376 20.7769 473.686 20.3986L474.236 19.7221L473.766 18.3232C473.514 17.555 473.353 16.7867 473.411 16.6262C473.479 16.4542 474.11 16.03 474.809 15.6745C476.174 14.9866 476.185 14.9636 476.369 12.4755L476.426 11.7302L479.832 11.3059L480.474 10.0791C481.391 8.34767 481.368 8.35914 482.801 8.85219C483.478 9.09297 484.212 9.28789 484.407 9.28789C484.613 9.28789 485.255 8.85218 485.851 8.32474C486.436 7.7973 486.998 7.37305 487.101 7.37305C487.193 7.37305 487.778 7.7973 488.374 8.32474C488.982 8.85218 489.658 9.28789 489.887 9.28789C490.105 9.28789 490.851 9.09297 491.539 8.85219C492.96 8.37061 492.937 8.34767 493.855 10.0791L494.508 11.3059L497.914 11.7302L497.971 12.6819C498.086 14.8604 498.154 14.9751 499.53 15.6745C500.23 16.03 500.86 16.4542 500.918 16.6262C500.987 16.7867 500.826 17.555 500.574 18.3232C500.058 19.8711 499.989 19.6533 501.48 21.3846C502.374 22.4395 502.408 22.279 500.918 24.0448L500.104 25.0194L500.551 26.338C500.792 27.0718 500.998 27.8171 500.998 28.0006C500.998 28.2184 500.505 28.5854 499.691 28.9752C498.223 29.6747 498.017 30.0186 498.017 31.75C498.017 33.0916 498.028 33.0801 495.987 33.2865L494.543 33.4355L493.832 34.7083C493.442 35.4077 493.098 36.0727 493.052 36.1874C493.018 36.3135 492.307 36.1874 491.367 35.8893L489.761 35.3848L488.924 36.0498C488.466 36.4167 487.961 36.8639 487.812 37.0359C487.663 37.2194 487.376 37.3684 487.17 37.3684C486.964 37.3684 486.677 37.2194 486.528 37.0359ZM489.578 32.1513C494.21 30.9474 497.191 27.0948 497.191 22.3363C497.191 16.179 491.63 11.4206 485.622 12.4296C480.611 13.2666 477.149 17.3256 477.149 22.3593C477.149 28.9408 483.294 33.791 489.578 32.1513ZM484.097 30.4543C481.632 29.4224 479.958 27.7713 479.04 25.4437C478.398 23.8269 478.387 20.9145 479.018 19.3322C480.015 16.8441 482.274 14.7687 484.785 14.0349C486.665 13.4845 489.119 13.7023 490.874 14.5738C493.453 15.8465 495.254 18.2429 495.735 21.0521C496.366 24.7328 494.336 28.5395 490.851 30.1906C489.589 30.7869 489.154 30.8786 487.388 30.9359C485.622 30.9818 485.198 30.913 484.097 30.4543ZM489.452 23.6893C491.011 22.1414 492.272 20.7769 492.272 20.6737C492.272 20.3871 490.541 18.6328 490.266 18.6328C490.14 18.6328 489.211 19.4698 488.19 20.4903L486.321 22.3478L485.255 21.3044L484.189 20.2495L481.964 22.4625L483.982 24.492C485.083 25.6042 486.138 26.51 486.31 26.51C486.493 26.51 487.904 25.2373 489.452 23.6893Z" fill="white"/>
<defs>
<linearGradient id="paint0_linear_669_2147" x1="410.395" y1="10.0902" x2="101.544" y2="10.0902" gradientUnits="userSpaceOnUse">
<stop stop-color="#FA8A00"/>
<stop offset="0.521569" stop-color="#FFAD03"/>
<stop offset="1" stop-color="#FFC243"/>
</linearGradient>
</defs>
</svg>
