<svg width="470" height="56" viewBox="0 0 470 56" fill="none" xmlns="http://www.w3.org/2000/svg">
<path fill-rule="evenodd" clip-rule="evenodd" d="M146.228 0H205.45H427.523L469.913 26.8192L427.523 53.627H205.45H146.228L188.618 26.8192L146.228 0Z" fill="url(#paint0_linear_669_2103)"/>
<path fill-rule="evenodd" clip-rule="evenodd" d="M113.216 1.5249H128.18H134.096L176.486 28.3441L134.096 55.1519H128.18H113.216L155.607 28.3441L113.216 1.5249Z" fill="#FFC243"/>
<path fill-rule="evenodd" clip-rule="evenodd" d="M80.3433 1.5249H95.318H101.223L143.625 28.3441L101.223 55.1519H95.318H80.3433L122.733 28.3441L80.3433 1.5249Z" fill="#FFC243"/>
<path d="M94.3088 29.6172C93.059 26.1659 90.3186 23.2994 86.959 21.8318C88.5872 22.1987 90.1581 22.7605 91.6601 23.5861C92.3366 19.1716 90.0205 14.631 86.466 11.9136C82.923 9.20755 78.3136 8.14121 73.8533 8.17561C69.3815 8.19854 65.2651 9.55154 60.9424 10.6638C62.2954 10.3886 63.7745 10.595 64.967 11.3173C66.1595 12.0397 67.0309 13.2895 67.2373 14.6654C67.4552 16.0414 67.0538 17.7154 65.8614 18.4493C64.2905 19.4239 62.2151 18.9079 60.5411 18.0938C57.5828 16.672 55.0603 14.4934 52.2052 12.8538C49.3616 11.2027 45.9333 10.1019 42.803 11.1109C40.5098 11.8562 38.7096 13.622 36.6572 14.8948C32.5179 17.4402 27.1632 17.8989 22.657 16.0758C25.3287 17.8989 28.3442 18.9423 31.5662 18.7244C34.169 18.5524 36.6686 17.6925 39.2027 17.0618C41.7367 16.4312 44.4312 16.0414 46.9193 16.8096C49.419 17.5778 51.6319 19.7793 51.6549 22.3936C51.6778 24.6409 50.0611 26.6819 48.043 27.668C46.0135 28.6656 43.663 28.7573 41.4271 28.4821C35.4188 27.7712 29.9495 24.6868 24.0788 23.1847C16.0755 21.1208 7.31538 22.1528 0 25.9939C5.03362 24.1594 10.4571 25.1569 15.3531 27.347C20.2377 29.537 24.6063 32.7246 29.3303 35.27C36.1527 38.9392 44.1675 41.2439 51.6663 39.3061C57.686 37.7467 62.7541 33.6304 68.6706 31.7385C70.9523 31.0161 73.6125 30.6836 75.5961 32.0137C78.1072 33.6992 78.3938 37.5977 76.6969 40.0973C74.9884 42.5854 71.8352 43.7664 68.8082 43.8352C65.7926 43.904 62.8458 43.0211 59.9449 42.1497C58.4543 41.7025 56.5853 41.9319 55.0259 42.1153C53.478 42.2988 51.93 42.8033 50.7261 43.7894C54.4297 42.3905 58.1332 43.8123 61.8712 45.085C67.3176 46.954 72.9474 48.7083 78.692 48.4905C84.4479 48.2726 90.4218 45.7271 93.3227 40.7508C95.2605 37.4257 95.6159 33.2291 94.3088 29.6172Z" fill="#FFC243"/>
<path fill-rule="evenodd" clip-rule="evenodd" d="M410.147 13.5628L411.42 9.57257C411.626 8.90754 412.337 8.09344 412.429 8.33423C412.555 8.64381 412.027 10.4325 412.027 14.331V15.7069C412.027 19.3876 411.752 23.2631 411.42 24.3295L410.147 28.3197C409.803 29.386 409.528 27.2418 409.528 23.5727V22.1853C409.528 18.5161 409.803 14.6291 410.147 13.5628Z" fill="white" stroke="#FFAD03" stroke-width="0.332517" stroke-miterlimit="2.61313"/>
<path fill-rule="evenodd" clip-rule="evenodd" d="M414.47 7.63477H429.1C430.442 7.63477 431.531 8.46033 431.531 9.48081V20.5571C431.531 21.5776 430.442 22.4031 429.1 22.4031H414.47C413.128 22.4031 412.027 21.5776 412.027 20.5571V9.48081C412.027 8.46033 413.128 7.63477 414.47 7.63477Z" fill="white" stroke="#FFAD03" stroke-width="0.332517" stroke-miterlimit="2.61313"/>
<path fill-rule="evenodd" clip-rule="evenodd" d="M411.11 29.5238H432.46C432.964 29.5238 433.526 29.0881 433.377 28.595L431.864 23.3206C431.726 22.839 431.451 22.4033 430.946 22.4033H412.624C412.119 22.4033 411.844 22.839 411.706 23.3206L410.181 28.595C410.044 29.0881 410.605 29.5238 411.11 29.5238Z" fill="white" stroke="#FFAD03" stroke-width="0.332517" stroke-miterlimit="2.61313"/>
<path fill-rule="evenodd" clip-rule="evenodd" d="M413.885 22.4033C412.864 22.4033 412.027 21.5662 412.027 20.5457V15.707C412.027 19.1583 411.787 22.7816 411.477 24.1002L411.706 23.3205C411.844 22.839 412.119 22.4033 412.624 22.4033H413.885Z" fill="white" stroke="#FFAD03" stroke-width="0.332517" stroke-miterlimit="2.61313"/>
<path fill-rule="evenodd" clip-rule="evenodd" d="M431.543 20.5457C431.543 21.5662 430.706 22.4032 429.685 22.4032H430.947C431.451 22.4032 431.726 22.8389 431.864 23.3205L432.082 24.0888C431.795 22.7931 431.554 19.3762 431.543 16.0396V20.5457Z" fill="white" stroke="#FFAD03" stroke-width="0.332517" stroke-miterlimit="2.61313"/>
<path fill-rule="evenodd" clip-rule="evenodd" d="M433.423 13.5628L432.15 9.57257C431.944 8.90754 431.233 8.09344 431.141 8.33423C431.015 8.64381 431.543 10.4325 431.543 14.331V15.7069C431.543 19.3876 431.818 23.2631 432.15 24.3295L433.423 28.3197C433.767 29.386 434.042 27.2418 434.042 23.5727V22.1853C434.042 18.5161 433.767 14.6291 433.423 13.5628Z" fill="white" stroke="#FFAD03" stroke-width="0.332517" stroke-miterlimit="2.61313"/>
<path d="M416.651 10.123C417.156 10.123 417.649 10.123 418.153 10.123C418.658 10.123 419.162 10.123 419.667 10.123C420.263 10.123 420.733 10.146 421.089 10.1918C421.433 10.2377 421.777 10.3409 422.109 10.5014C422.43 10.6505 422.728 10.8569 422.981 11.1206C423.221 11.3728 423.382 11.6595 423.428 11.9806C423.474 12.336 423.382 12.6571 423.164 12.9437C422.946 13.2304 422.625 13.4482 422.212 13.5858C422.809 13.7234 423.279 13.9527 423.611 14.2738C423.944 14.5834 424.116 14.9618 424.139 15.3975C424.162 15.73 424.07 16.0625 423.898 16.3836C423.714 16.7046 423.451 16.9569 423.118 17.1518C422.786 17.3352 422.361 17.4614 421.834 17.5072C421.513 17.5302 420.722 17.5416 419.46 17.5531C418.91 17.5531 418.36 17.5531 417.809 17.5531C417.247 17.5531 416.697 17.5531 416.147 17.5531C416.147 16.3147 415.94 15.0764 415.929 13.8381C415.917 12.5997 416.181 11.3499 416.651 10.123ZM418.016 11.3499C417.958 11.9232 417.924 12.4965 417.912 13.0698C418.325 13.0698 418.75 13.0698 419.174 13.0698C419.931 13.0698 420.401 13.0584 420.584 13.0354C420.905 13.0125 421.169 12.9208 421.352 12.7717C421.536 12.6341 421.616 12.4392 421.605 12.1984C421.582 11.9691 421.49 11.7856 421.329 11.6366C421.157 11.499 420.928 11.4073 420.618 11.3843C420.435 11.3614 419.919 11.3499 419.059 11.3499C418.704 11.3499 418.36 11.3499 418.016 11.3499ZM417.912 14.2967C417.935 14.6292 417.958 14.9618 417.993 15.3057C418.027 15.6383 418.062 15.9593 418.084 16.2918C418.692 16.2918 419.288 16.2918 419.885 16.2918C420.584 16.2918 421.02 16.2803 421.215 16.2459C421.501 16.2115 421.719 16.1084 421.891 15.9478C422.063 15.7873 422.143 15.5809 422.121 15.3172C422.109 15.0879 422.029 14.9044 421.88 14.7553C421.731 14.5948 421.513 14.4802 421.238 14.4114C420.974 14.3426 420.389 14.2967 419.495 14.2967C418.967 14.2967 418.44 14.2967 417.912 14.2967Z" fill="#FF9966"/>
<path fill-rule="evenodd" clip-rule="evenodd" d="M386.151 13.5628L387.424 9.57257C387.63 8.90754 388.341 8.09344 388.433 8.33423C388.559 8.64381 388.032 10.4325 388.032 14.331V15.7069C388.032 19.3876 387.756 23.2631 387.424 24.3295L386.151 28.3197C385.807 29.386 385.532 27.2418 385.532 23.5727V22.1853C385.532 18.5161 385.807 14.6291 386.151 13.5628Z" fill="white" stroke="#FFAD03" stroke-width="0.332517" stroke-miterlimit="2.61313"/>
<path fill-rule="evenodd" clip-rule="evenodd" d="M390.474 7.63477H405.105C406.446 7.63477 407.535 8.46033 407.535 9.48081V20.5571C407.535 21.5776 406.446 22.4031 405.105 22.4031H390.474C389.132 22.4031 388.031 21.5776 388.031 20.5571V9.48081C388.031 8.46033 389.132 7.63477 390.474 7.63477Z" fill="white" stroke="#FFAD03" stroke-width="0.332517" stroke-miterlimit="2.61313"/>
<path fill-rule="evenodd" clip-rule="evenodd" d="M387.114 29.5238H408.464C408.969 29.5238 409.53 29.0881 409.381 28.595L407.868 23.3206C407.73 22.839 407.455 22.4033 406.951 22.4033H388.628C388.123 22.4033 387.848 22.839 387.71 23.3206L386.185 28.595C386.048 29.0881 386.61 29.5238 387.114 29.5238Z" fill="white" stroke="#FFAD03" stroke-width="0.332517" stroke-miterlimit="2.61313"/>
<path fill-rule="evenodd" clip-rule="evenodd" d="M389.889 22.4033C388.869 22.4033 388.032 21.5662 388.032 20.5457V15.707C388.032 19.1583 387.791 22.7816 387.481 24.1002L387.711 23.3205C387.848 22.839 388.123 22.4033 388.628 22.4033H389.889Z" fill="white" stroke="#FFAD03" stroke-width="0.332517" stroke-miterlimit="2.61313"/>
<path fill-rule="evenodd" clip-rule="evenodd" d="M407.547 20.5457C407.547 21.5662 406.71 22.4032 405.689 22.4032H406.951C407.455 22.4032 407.73 22.8389 407.868 23.3205L408.086 24.0888C407.799 22.7931 407.558 19.3762 407.547 16.0396V20.5457Z" fill="white" stroke="#FFAD03" stroke-width="0.332517" stroke-miterlimit="2.61313"/>
<path fill-rule="evenodd" clip-rule="evenodd" d="M409.427 13.5628L408.155 9.57257C407.948 8.90754 407.237 8.09344 407.146 8.33423C407.02 8.64381 407.547 10.4325 407.547 14.331V15.7069C407.547 19.3876 407.822 23.2631 408.155 24.3295L409.427 28.3197C409.771 29.386 410.047 27.2418 410.047 23.5727V22.1853C410.047 18.5161 409.771 14.6291 409.427 13.5628Z" fill="white" stroke="#FFAD03" stroke-width="0.332517" stroke-miterlimit="2.61313"/>
<path d="M400.415 17.5531C399.716 17.5531 399.005 17.5531 398.294 17.5531C397.961 16.9912 397.64 16.4294 397.331 15.8561C396.677 15.8561 396.047 15.8561 395.393 15.8561C394.751 15.8561 394.109 15.8561 393.467 15.8561C393.249 16.4294 393.008 16.9912 392.721 17.5531C392.033 17.5531 391.334 17.5531 390.635 17.5531C391.277 16.3147 391.724 15.0535 392.309 13.8381C392.928 12.5768 393.673 11.3499 394.292 10.123C394.831 10.123 395.37 10.123 395.909 10.123C396.792 11.3499 397.503 12.5997 398.214 13.8381C398.925 15.0764 399.647 16.3147 400.415 17.5531ZM396.597 14.6063C396.345 14.1477 396.115 13.689 395.886 13.2304C395.645 12.7717 395.427 12.3131 395.21 11.8544C394.992 12.3131 394.785 12.7717 394.567 13.2304C394.35 13.689 394.132 14.1477 393.948 14.6063C394.384 14.6063 394.831 14.6063 395.278 14.6063C395.714 14.6063 396.161 14.6063 396.597 14.6063Z" fill="#FF9966"/>
<path fill-rule="evenodd" clip-rule="evenodd" d="M398.408 32.0115L399.681 28.0213C399.888 27.3563 400.599 26.5422 400.69 26.783C400.816 27.0925 400.289 28.8813 400.289 32.7797V34.1557C400.289 37.8363 400.014 41.7233 399.681 42.7782L398.408 46.7684C398.064 47.8462 397.789 45.7021 397.789 42.0214V40.6455C397.789 36.9649 398.064 33.0779 398.408 32.0115Z" fill="white" stroke="#FFAD03" stroke-width="0.332517" stroke-miterlimit="2.61313"/>
<path fill-rule="evenodd" clip-rule="evenodd" d="M402.731 26.0835H417.362C418.703 26.0835 419.793 26.9091 419.793 27.9295V39.0058C419.793 40.0263 418.703 40.8519 417.362 40.8519H402.731C401.39 40.8519 400.289 40.0263 400.289 39.0058V27.9295C400.289 26.9091 401.39 26.0835 402.731 26.0835Z" fill="white" stroke="#FFAD03" stroke-width="0.332517" stroke-miterlimit="2.61313"/>
<path fill-rule="evenodd" clip-rule="evenodd" d="M399.372 47.9725H420.722C421.226 47.9725 421.788 47.5368 421.639 47.0437L420.125 41.7693C419.988 41.2878 419.713 40.8521 419.208 40.8521H400.885C400.381 40.8521 400.105 41.2878 399.956 41.7693L398.454 47.0437C398.305 47.5368 398.867 47.9725 399.372 47.9725Z" fill="white" stroke="#FFAD03" stroke-width="0.332517" stroke-miterlimit="2.61313"/>
<path fill-rule="evenodd" clip-rule="evenodd" d="M402.135 40.852C401.126 40.852 400.289 40.0149 400.289 38.9944V34.1558C400.289 37.6071 400.048 41.2303 399.739 42.5489L399.956 41.7693C400.105 41.2877 400.381 40.852 400.885 40.852H402.135Z" fill="white" stroke="#FFAD03" stroke-width="0.332517" stroke-miterlimit="2.61313"/>
<path fill-rule="evenodd" clip-rule="evenodd" d="M419.793 38.9945C419.793 40.0149 418.967 40.852 417.958 40.852H419.208C419.713 40.852 419.988 41.2877 420.125 41.7693L420.343 42.5375C420.045 41.2418 419.816 37.8249 419.793 34.4883V38.9945Z" fill="white" stroke="#FFAD03" stroke-width="0.332517" stroke-miterlimit="2.61313"/>
<path fill-rule="evenodd" clip-rule="evenodd" d="M421.685 32.0115L420.412 28.0213C420.205 27.3563 419.495 26.5422 419.391 26.783C419.277 27.0925 419.793 28.8813 419.793 32.7797V34.1557C419.793 37.8363 420.068 41.7233 420.412 42.7782L421.685 46.7684C422.029 47.8462 422.304 45.7021 422.304 42.0214V40.6455C422.304 36.9649 422.029 33.0779 421.685 32.0115Z" fill="white" stroke="#FFAD03" stroke-width="0.332517" stroke-miterlimit="2.61313"/>
<path d="M409.932 33.2385C410.574 33.3761 411.205 33.5137 411.847 33.6627C411.594 34.4539 411.159 35.0387 410.517 35.4285C410.196 35.6235 409.817 35.761 409.404 35.8528C408.98 35.956 408.499 36.0018 407.983 36.0018C407.329 36.0018 406.744 35.9216 406.217 35.761C405.689 35.6005 405.219 35.3483 404.795 35.0272C404.359 34.6947 404.015 34.3163 403.752 33.8691C403.499 33.422 403.316 32.9174 403.327 32.3556C403.327 31.7479 403.476 31.2205 403.729 30.7618C403.992 30.2917 404.359 29.8904 404.807 29.5693C405.254 29.2254 405.735 28.9846 406.228 28.8126C406.676 28.652 407.123 28.5718 407.65 28.5718C408.109 28.5718 408.602 28.6291 409.083 28.7667C409.542 28.8928 410.001 29.0878 410.402 29.3515C410.895 29.6611 411.296 30.0968 411.606 30.6701C410.987 30.7962 410.368 30.8994 409.748 31.0141C409.611 30.6471 409.359 30.349 408.992 30.1312C408.636 29.9248 408.223 29.8101 407.73 29.8101C407.065 29.8101 406.504 30.005 406.056 30.3834C405.609 30.7733 405.345 31.381 405.345 32.2409C405.334 32.6881 405.437 33.0894 405.575 33.4105C405.712 33.7315 405.907 33.9838 406.148 34.1787C406.618 34.5686 407.203 34.7635 407.902 34.7635C408.418 34.7635 408.854 34.6374 409.21 34.3851C409.554 34.1443 409.806 33.7659 409.932 33.2385Z" fill="#FF9966"/>
<defs>
<linearGradient id="paint0_linear_669_2103" x1="410.395" y1="10.0902" x2="101.544" y2="10.0902" gradientUnits="userSpaceOnUse">
<stop stop-color="#FA8A00"/>
<stop offset="0.521569" stop-color="#FFAD03"/>
<stop offset="1" stop-color="#FFC243"/>
</linearGradient>
</defs>
</svg>
